<?xml version="1.0" encoding="utf-8"?>
<!-- Generator: Adobe Illustrator 19.2.0, SVG Export Plug-In . SVG Version: 6.00 Build 0)  -->
<svg version="1.1" id="Layer_1" xmlns="http://www.w3.org/2000/svg" xmlns:xlink="http://www.w3.org/1999/xlink" x="0px" y="0px"
	 viewBox="0 0 50 50" style="enable-background:new 0 0 50 50;" xml:space="preserve">
<style type="text/css">
	.st0{fill:#F6A8BE;}
	.st1{fill:#FFFFFF;}
	.st2{display:none;fill:#7ACDCF;}
	.st3{display:none;fill:#14AA4B;}
	.st4{fill:#CCCCCC;}
	.st5{fill:#14AA4B;}
</style>
<path class="st0" d="M44.8,20.3c-0.1,0.4-0.3,1.7-0.9,3.1c-1.9,4.6-6.6,7-9.9,9.9c-2.2,1.9-5.5,4.9-8.9,8.9c-3.5-4-6.7-6.9-8.9-8.9
	c-5.7-4.9-8.3-5.9-9.9-9.9c-0.6-1.5-2.1-5.8,0-10C6.6,12.7,8,10,11.1,8.6c3.7-1.7,7.1-0.4,8,0c4.7,1.8,5.6,4.4,5.9,5.2
	c0.1-0.2,0.2-0.6,0.5-1.1c0.1-0.2,0.7-1.2,2-2.3"/>
<path class="st1" d="M27.5,10.4l17.3,9.9c-0.1,0.4-0.3,1.7-0.9,3.1c-1.9,4.6-6.6,7-9.9,9.9c-2.2,1.9-5.5,4.9-8.9,8.9"/>
<path class="st2" d="M25,13.8c0.1-0.2,0.2-0.6,0.5-1.1c0.1-0.2,0.7-1.2,2-2.3"/>

<path class="st4" d="M44.8,20.3c-0.4,0.4-1.6,1.2-3.5,1.9c-1.3,0.4-4.6,1.6-8,0c-3.1-1.4-4.5-4.1-4.9-4.9c-1.4-2.9-1.1-5.7-0.9-6.9"
	/>
<path class="st5" d="M23.7,13"/>
</svg>
