<?xml version="1.0" encoding="utf-8"?>
<!-- Generator: Adobe Illustrator 19.2.0, SVG Export Plug-In . SVG Version: 6.00 Build 0)  -->
<svg version="1.1" id="Layer_1" xmlns="http://www.w3.org/2000/svg" xmlns:xlink="http://www.w3.org/1999/xlink" x="0px" y="0px"
	 viewBox="0 0 16 16" style="enable-background:new 0 0 16 16;" xml:space="preserve">
<style type="text/css">
	.st0{fill:#F9B8B1;}
	.st1{opacity:0.33;fill:#010101;}
	.st2{fill:#F1F0F0;}
</style>
<path class="st0" d="M16,6.2c0,0.2-0.1,0.7-0.4,1.2c-0.8,1.9-2.7,2.8-4,4c-0.9,0.8-2.2,2-3.6,3.6c-1.4-1.6-2.7-2.8-3.6-3.6
	c-2.3-2-3.3-2.4-4-4c-0.2-0.6-0.8-2.3,0-4C0.6,3.1,1.1,2,2.4,1.5c1.5-0.7,2.9-0.2,3.2,0C7.5,2.2,7.9,3.2,8,3.6
	c0-0.1,0.1-0.2,0.2-0.4C8.2,3,8.5,2.6,9,2.2"/>
<path class="st1" d="M15.8,6.4c-0.2,0.2-0.6,0.5-1.4,0.8c-0.5,0.2-1.9,0.6-3.2,0c-1.2-0.6-1.8-1.7-2-2C8.6,4,8.9,2.7,9,2.2"/>
<path class="st2" d="M16,6.2c-0.2,0.2-0.6,0.5-1.4,0.8c-0.5,0.2-1.9,0.6-3.2,0c-1.2-0.6-1.8-1.7-2-2C8.8,3.8,8.9,2.7,9,2.2"/>
</svg>
