<svg id="Layer_2" data-name="Layer 2" xmlns="http://www.w3.org/2000/svg" viewBox="0 0 117.68 43.28"><defs><style>.cls-1,.cls-2{fill:none;stroke:#231f20;stroke-miterlimit:10;}.cls-2{stroke-width:0.75px;}</style></defs><title>logo</title><path class="cls-1" d="M6.43,2.24c-4.11,10.15-3.34,19.62.12,27l0.26,0.53c3.95,8,11.08,13.57,18.49,14.73,10.35,1.63,25.7-3.43,31-15.64" transform="translate(-3.14 -2.05)"/><ellipse class="cls-2" cx="25.64" cy="25.31" rx="1.51" ry="1.19" transform="translate(-10.12 7.95) rotate(-19.48)"/><ellipse class="cls-1" cx="25.64" cy="25.31" rx="3.34" ry="3.61" transform="translate(-5.72 45.67) rotate(-83.09)"/><path class="cls-1" d="M117.54,2.24c4.11,10.15,3.34,19.62-.12,27l-0.26.53c-3.95,8-11.08,13.57-18.49,14.73-10.35,1.63-25.7-3.43-31-15.64" transform="translate(-3.14 -2.05)"/><ellipse class="cls-2" cx="98.33" cy="26.31" rx="1.19" ry="1.51" transform="translate(37.58 108.18) rotate(-70.52)"/><ellipse class="cls-1" cx="98.33" cy="26.31" rx="3.61" ry="3.34" transform="translate(-5.6 9.97) rotate(-6.91)"/></svg>